<svg xmlns="http://www.w3.org/2000/svg" viewBox="0 0 720 220" fill="none">
  <defs>
    <linearGradient id="bg" x1="24" y1="24" x2="196" y2="196" gradientUnits="userSpaceOnUse">
      <stop stop-color="#0A2540"/>
      <stop offset="1" stop-color="#061b33"/>
    </linearGradient>
    <linearGradient id="accent" x1="36" y1="168" x2="204" y2="112" gradientUnits="userSpaceOnUse">
      <stop stop-color="#4cc3ff"/>
      <stop offset="1" stop-color="#79d7ff"/>
    </linearGradient>
  </defs>

  <rect x="20" y="20" width="180" height="180" rx="52" fill="url(#bg)"/>
  <path d="M74 86h55c12 0 21 9 21 21s-9 21-21 21H96" stroke="#ffffff" stroke-width="18" stroke-linecap="round" stroke-linejoin="round"/>
  <path d="M68 134h58c12 0 21 9 21 21" stroke="#ffffff" stroke-width="18" stroke-linecap="round" stroke-linejoin="round" opacity="0.92"/>
  <path d="M46 156c34 0 62-36 102-36 22 0 40 8 55 20" stroke="url(#accent)" stroke-width="14" stroke-linecap="round"/>
  <circle cx="46" cy="156" r="12" fill="#4cc3ff"/>
  <circle cx="182" cy="142" r="12" fill="#4cc3ff"/>

  <g fill="#0B1220">
    <text x="250" y="120" font-family="Inter, ui-sans-serif, system-ui" font-size="64" font-weight="700" letter-spacing="-0.02em">FashShipping</text>
    <text x="250" y="168" font-family="Inter, ui-sans-serif, system-ui" font-size="34" font-weight="500" fill="#64748b">Courier &amp; Tracking</text>
  </g>
</svg>
