<svg xmlns="http://www.w3.org/2000/svg" viewBox="0 0 1200 800" fill="none">
  <defs>
    <linearGradient id="bg" x1="0" y1="0" x2="1" y2="1">
      <stop offset="0" stop-color="#f8fafc"/>
      <stop offset="1" stop-color="#e2e8f0"/>
    </linearGradient>
    <linearGradient id="sea" x1="0" y1="0" x2="0" y2="1">
      <stop offset="0" stop-color="#0a2a4a" stop-opacity="0.9"/>
      <stop offset="1" stop-color="#061b33" stop-opacity="0.95"/>
    </linearGradient>
    <radialGradient id="g" cx="0" cy="0" r="1" gradientUnits="userSpaceOnUse" gradientTransform="translate(760 220) rotate(55) scale(520 380)">
      <stop offset="0" stop-color="#4cc3ff" stop-opacity="0.22"/>
      <stop offset="1" stop-color="#4cc3ff" stop-opacity="0"/>
    </radialGradient>
  </defs>
  <rect width="1200" height="800" fill="url(#bg)"/>
  <rect width="1200" height="800" fill="url(#g)"/>
  <rect y="430" width="1200" height="370" fill="url(#sea)"/>
  <g opacity="0.95">
    <path d="M240 540H760L880 495H1060L990 620H275C255 620 246 605 240 540Z" fill="#0f355f"/>
    <rect x="350" y="410" width="120" height="120" rx="14" fill="#103a64"/>
    <rect x="480" y="390" width="120" height="140" rx="14" fill="#0b2a4e"/>
    <rect x="610" y="420" width="120" height="110" rx="14" fill="#103a64"/>
    <path d="M280 665C440 640 590 650 740 685C890 720 995 715 1060 702V740C995 750 890 755 740 720C590 685 440 675 280 700V665Z" fill="#79d7ff" fill-opacity="0.18"/>
  </g>
</svg>
